<svg width="93" height="36" viewBox="0 0 93 36" fill="none" xmlns="http://www.w3.org/2000/svg">
<path d="M32 0C33.0609 0 34.0783 0.421427 34.8284 1.17157C35.5786 1.92172 36 2.93913 36 4V32C36 33.0609 35.5786 34.0783 34.8284 34.8284C34.0783 35.5786 33.0609 36 32 36H4C2.93913 36 1.92172 35.5786 1.17157 34.8284C0.421427 34.0783 0 33.0609 0 32V4C0 2.93913 0.421427 1.92172 1.17157 1.17157C1.92172 0.421427 2.93913 0 4 0H32ZM31 31V20.4C31 18.6708 30.3131 17.0124 29.0903 15.7897C27.8676 14.5669 26.2092 13.88 24.48 13.88C22.78 13.88 20.8 14.92 19.84 16.48V14.26H14.26V31H19.84V21.14C19.84 19.6 21.08 18.34 22.62 18.34C23.3626 18.34 24.0748 18.635 24.5999 19.1601C25.125 19.6852 25.42 20.3974 25.42 21.14V31H31ZM7.76 11.12C8.65113 11.12 9.50576 10.766 10.1359 10.1359C10.766 9.50576 11.12 8.65113 11.12 7.76C11.12 5.9 9.62 4.38 7.76 4.38C6.86357 4.38 6.00385 4.73611 5.36998 5.36998C4.73611 6.00385 4.38 6.86357 4.38 7.76C4.38 9.62 5.9 11.12 7.76 11.12ZM10.54 31V14.26H5V31H10.54Z" fill="white"/>
<path d="M67.44 0H82.56C88.32 0 93 4.68 93 10.44V25.56C93 28.3289 91.9001 30.9843 89.9422 32.9422C87.9843 34.9001 85.3289 36 82.56 36H67.44C61.68 36 57 31.32 57 25.56V10.44C57 7.67114 58.0999 5.01569 60.0578 3.05781C62.0157 1.09993 64.6711 0 67.44 0ZM67.08 3.6C65.3614 3.6 63.7132 4.28271 62.4979 5.49795C61.2827 6.71318 60.6 8.3614 60.6 10.08V25.92C60.6 29.502 63.498 32.4 67.08 32.4H82.92C84.6386 32.4 86.2868 31.7173 87.5021 30.5021C88.7173 29.2868 89.4 27.6386 89.4 25.92V10.08C89.4 6.498 86.502 3.6 82.92 3.6H67.08ZM84.45 6.3C85.0467 6.3 85.619 6.53705 86.041 6.95901C86.4629 7.38097 86.7 7.95326 86.7 8.55C86.7 9.14674 86.4629 9.71903 86.041 10.141C85.619 10.5629 85.0467 10.8 84.45 10.8C83.8533 10.8 83.281 10.5629 82.859 10.141C82.437 9.71903 82.2 9.14674 82.2 8.55C82.2 7.95326 82.437 7.38097 82.859 6.95901C83.281 6.53705 83.8533 6.3 84.45 6.3ZM75 9C77.3869 9 79.6761 9.94821 81.364 11.636C83.0518 13.3239 84 15.6131 84 18C84 20.3869 83.0518 22.6761 81.364 24.364C79.6761 26.0518 77.3869 27 75 27C72.6131 27 70.3239 26.0518 68.636 24.364C66.9482 22.6761 66 20.3869 66 18C66 15.6131 66.9482 13.3239 68.636 11.636C70.3239 9.94821 72.6131 9 75 9ZM75 12.6C73.5678 12.6 72.1943 13.1689 71.1816 14.1816C70.1689 15.1943 69.6 16.5678 69.6 18C69.6 19.4322 70.1689 20.8057 71.1816 21.8184C72.1943 22.8311 73.5678 23.4 75 23.4C76.4322 23.4 77.8057 22.8311 78.8184 21.8184C79.8311 20.8057 80.4 19.4322 80.4 18C80.4 16.5678 79.8311 15.1943 78.8184 14.1816C77.8057 13.1689 76.4322 12.6 75 12.6Z" fill="white"/>
</svg>
