<svg width="1440" height="204" viewBox="0 0 1440 204" fill="none" xmlns="http://www.w3.org/2000/svg"> <path d="M-8 90.225C94.15 127.655 182.19 138.295 243.18 140.885C307.92 143.635 416.75 148.255 539.07 101.855C607.49 75.905 684.47 32.335 777.62 18.915C801.86 15.425 842.17 11.815 881.72 29.015C910.38 41.475 936.53 63.945 937.63 64.895C947.96 73.875 955.84 82.345 961.37 88.805C960.22 83.395 958.44 71.345 963.25 57.485C965 52.445 969.21 40.655 980.64 32.365C993.93 22.725 1008.61 23.415 1017.99 23.995C1040.5 25.375 1056.86 35.105 1068.22 42.025C1126.8 77.735 1171.91 110.295 1171.91 110.295C1179.1 115.485 1186.32 120.675 1193.56 125.865C1199.91 130.415 1206.25 134.945 1212.58 139.465C1207.2 132.845 1200.07 122.685 1194.45 109.005C1190.66 99.775 1182.56 79.435 1186.08 53.615C1187.9 40.265 1190.42 21.765 1204.76 9.82502C1208.09 7.04502 1221.06 -2.86498 1257.57 0.805022C1288.22 3.88502 1309.36 13.915 1339.36 28.495C1381.7 49.075 1413.86 72.265 1437.9 92.895C1442.76 97.065 1446.73 100.655 1449.49 103.195V203.015C1427.76 174.095 1407.92 151.215 1392.82 134.745C1353.82 92.215 1331.11 75.555 1316.18 65.835C1301.81 56.475 1259.97 29.235 1245.99 41.365C1239.99 46.565 1240.83 57.535 1241.47 65.835C1242.47 78.925 1247.28 86.185 1256.93 105.765C1271.81 135.975 1277.12 147.425 1280.11 163.725C1282.08 174.455 1282.07 181.975 1278.18 188.845C1271.98 199.785 1259.56 202.715 1258.22 203.015C1239.17 207.215 1220.29 190.545 1212.49 183.695C1212.49 183.695 1135.01 115.555 1038.48 60.595C1031.22 56.465 1015.98 48.295 1003.48 54.065C994.47 58.225 990.47 67.965 989.64 70.005C987.03 76.375 987.24 81.535 989.5 101.825C990.64 112.035 991.76 121.285 992.79 129.375C983.92 120.385 970.77 108.165 953.3 95.645C936.62 83.685 915.08 68.255 884.9 59.945C863.36 54.015 844.97 53.795 828.84 54.495C760.02 57.475 699 78.565 673.33 87.065C673.33 87.065 625.5 102.895 514.96 128.935C355.2 166.565 218.9 156.555 156.1 151.465C95.1 146.525 40.09 137.515 -7.99 127.035V90.185L-8 90.225Z" fill="url(#paint0_linear_2639_1175)"/> <defs> <linearGradient id="paint0_linear_2639_1175" x1="-8" y1="101.842" x2="1449.49" y2="101.842" gradientUnits="userSpaceOnUse"> <stop stop-color="#FA7A57"/> <stop offset="1" stop-color="#F4C592"/> </linearGradient> </defs> </svg>